<?xml version="1.0" encoding="utf-8" ?>
<svg version="1.1" xmlns="http://www.w3.org/2000/svg" xmlns:xlink="http://www.w3.org/1999/xlink"
     viewBox="0 0 1010 180" xml:space="preserve">
    <path fill="#ec008c"
          d="m 615.71484,0.35742188 c -51.08623,0 -92.49984,40.13430412 -92.5,89.64257812 1.6e-4,49.50828 41.41377,89.64258 92.5,89.64258 51.08623,0 92.49984,-40.1343 92.5,-89.64258 -1.6e-4,-49.508274 -41.41377,-89.64257812 -92.5,-89.64257812 z m 0,8.06835932 C 662.20264,8.426409 699.88822,44.94812 699.88867,90 c -4.5e-4,45.05188 -37.686,81.57359 -84.17383,81.57422 C 569.22628,171.57464 531.53951,135.05262 531.539,90 531.53951,44.947382 569.22628,8.4253653 615.71484,8.4257812 Z M 839.6,174.7 839.6,-0.7 l 151.5,158.91386 0,-154.2143 9.7,8.6e-4 0,177.09957 -151.5,-159 0,152.6002 z M 256.42857,3.57143 l 9.64286,0 74.28571,157.14286 L 415,3.57143 l 10,0 -84.64286,176.78571 z M 84.285156,-1.0722656 0.35742188,174.9 l 9.28515622,0 24.6425779,-49.36387 100.357424,0 23.21484,49.36387 10.35742,-0.17871 z m 0,18.5722656 47.5,100 -93.927738,0 z"
          id="avonlogo" />
</svg>
